<svg xmlns="http://www.w3.org/2000/svg" xmlns:xlink="http://www.w3.org/1999/xlink" viewBox="0 0 595 595"><defs><path id="a" d="M297.5 0C133.195 0 0 133.195 0 297.5S133.195 595 297.5 595 595 461.805 595 297.5 461.805 0 297.5 0Z"/></defs><g fill="none" fill-rule="evenodd"><use xlink:href="#a" fill="#031D42"/><path fill="#FFF" fill-rule="nonzero" d="M97.34 299.751c-14.091 0-25.55 11.407-25.55 25.424S83.254 350.6 97.34 350.6c14.085 0 25.55-11.407 25.55-25.424s-11.465-25.424-25.55-25.424Zm0 44.307c-10.461 0-18.976-8.47-18.976-18.883 0-10.412 8.51-18.882 18.976-18.882 10.465 0 18.975 8.47 18.975 18.882 0 10.413-8.51 18.883-18.975 18.883Zm98.922-10.954v-31.546h-6.578v31.546c0 6.037-4.937 10.95-11.007 10.95-6.07 0-11.006-4.913-11.006-10.95v-31.546h-6.579v31.546c0 6.037-4.936 10.95-11.006 10.95s-11.002-4.913-11.002-10.95v-31.546h-6.579v31.546c0 9.646 7.885 17.495 17.58 17.495 5.893 0 11.1-2.909 14.296-7.344 3.192 4.435 8.403 7.344 14.296 7.344 9.696 0 17.585-7.849 17.585-17.495Zm171.792-33.353c14.09 0 25.555 11.407 25.555 25.43 0 14.02-11.464 25.428-25.555 25.428-14.09 0-25.554-11.407-25.554-25.429 0-14.022 11.464-25.429 25.554-25.429ZM278.65 284.12a23.693 23.693 0 0 0 6.019 3.39l-.216.18c-6.733 5.837-11.022 14.387-11.111 23.926l-.002.304c0 17.72 14.492 32.139 32.301 32.139h1.264v6.546h-1.264c-21.434 0-38.875-17.355-38.875-38.685 0-10.902 4.563-20.759 11.884-27.8Zm40.33-5.015a53.777 53.777 0 0 0 6.579 3.908v50.092c0 6.037 4.936 10.95 11.002 10.95h1.264v6.545h-1.264c-9.696 0-17.58-7.849-17.58-17.495v-54Zm89.298 22.454v23.617c0 10.408 8.515 18.878 18.975 18.878s18.976-8.465 18.976-18.878v-23.617h6.578v23.617c0 14.017-11.463 25.424-25.554 25.424-14.09 0-25.554-11.407-25.554-25.424v-23.617h6.579Zm104.512-40.281v71.878c-.177 9.66-9.891 17.44-17.818 17.44h-7.941c-14.091 0-25.555-11.403-25.555-25.424 0-14.022 11.46-25.429 25.55-25.429l19.185-.023v-38.442h6.579Zm-280.854 38.269c14.091 0 25.555 11.407 25.555 25.429v23.617h-6.579v-23.617c0-10.413-8.51-18.883-18.976-18.883-10.465 0-18.975 8.47-18.975 18.883v23.617h-6.579v-23.617c0-14.022 11.464-25.429 25.554-25.429Zm136.118 6.752c-10.46 0-18.975 8.47-18.975 18.882s8.515 18.882 18.975 18.882c10.461 0 18.976-8.47 18.976-18.882s-8.515-18.882-18.976-18.882Zm138.176-.033-19.2.023c-10.46 0-18.975 8.475-18.975 18.883 0 10.407 8.515 18.877 18.976 18.877h7.94c4.82 0 11.138-5.341 11.24-11.014l.022-1.463c.029-2.438.04-5.782.04-9.31v-2.097l-.017-8.047c-.008-2.306-.018-4.347-.026-5.852Zm-89.25-97.769c.47 0 .942.019 1.408.037 18.761.673 34.163 14.68 36.883 32.769a37.575 37.575 0 0 1 .392 4.156c.018.523.037 1.046.037 1.568 0 9.937-3.802 19.009-10.031 25.85a33.994 33.994 0 0 1-1.451 1.508c-.495.485-1.003.952-1.521 1.414-6.845 6.061-15.85 9.754-25.713 9.754-11.426 0-21.705-4.95-28.797-12.803 8.893-8.965 14.641-21.016 15.467-34.38.042-.668.07-1.342.087-2.02l.01-.678c0-.21.015-.411.015-.621 0-.536-.016-1.066-.036-1.596l-.02-.533a53.03 53.03 0 0 0-4.75-19.985 38.564 38.564 0 0 1 15.378-4.342 36.315 36.315 0 0 1 2.025-.084l.616-.014Zm-123.866 37.676c1.362 0 2.692.14 3.975.406a53.12 53.12 0 0 0 5.995 15.325 56.442 56.442 0 0 0 2.3 3.619 54.17 54.17 0 0 0 5.508 6.7l.409.42c-2.842 7.247-9.915 12.401-18.187 12.401-5.562 0-10.573-2.334-14.133-6.056a19.282 19.282 0 0 1-2.473-3.198c-1.843-2.965-2.925-6.444-2.925-10.179 0-1.62.224-3.184.602-4.693.163-.667.368-1.32.602-1.96a19.563 19.563 0 0 1 17.898-12.761c.144-.005.284-.024.429-.024Zm56.679-60.803c.387 0 .77.019 1.157.028 7.176.168 13.978 1.835 20.104 4.716h.01a51.586 51.586 0 0 1 3.625 1.9c7.978 4.586 14.576 11.295 18.99 19.36a51.816 51.816 0 0 1 1.787 3.642 49.128 49.128 0 0 1 4.255 20.035c0 .43-.024.854-.033 1.28-.019.858-.065 1.718-.13 2.567-.066.855-.155 1.7-.262 2.54-1.414 10.87-6.364 20.648-13.67 28.151-.481.495-.97.976-1.47 1.448-.49.462-.985.915-1.493 1.354-8.786 7.667-19.81 12.331-32.866 12.331-13.054 0-24.952-5.02-33.859-13.214a46.77 46.77 0 0 1-1.698-1.634 50.861 50.861 0 0 1-5.94-7.242 49.219 49.219 0 0 1-6.649-14.48 43.71 43.71 0 0 1-.615-2.479 48.284 48.284 0 0 1-.448-2.316 49.277 49.277 0 0 1-.714-8.306c0-10.725 3.443-20.661 9.276-28.79.392-.552.797-1.093 1.213-1.625.42-.537.849-1.07 1.292-1.593a50.233 50.233 0 0 1 10.727-9.483 53.56 53.56 0 0 1 1.768-1.116 49.736 49.736 0 0 1 23.572-7.015l.643-.021c.476-.014.947-.038 1.428-.038Zm-96.711 28.193c.359 0 .718.019 1.073.028a42.417 42.417 0 0 0-1.32 10.506c0 14.185 7.017 26.764 17.771 34.5a23.339 23.339 0 0 0-1.073 7.005c0 4.669 1.381 9.02 3.751 12.677a35.565 35.565 0 0 1-19.83 6.264l-.372.002c-19.666 0-35.665-15.922-35.665-35.491s15.999-35.49 35.665-35.49Zm209.7 30.537c10.77 0 19.531 8.722 19.531 19.438s-8.762 19.433-19.53 19.433c-5.888 0-11.165-2.62-14.749-6.733 7.25-7.63 11.711-17.906 11.711-29.21 0-.892-.037-1.775-.093-2.653 1.022-.163 2.062-.275 3.13-.275Zm-167.177-58.534c.914 0 1.82.047 2.72.108a39.304 39.304 0 0 0 4.073 11.519 39.684 39.684 0 0 0 3.994 5.976c-6.635 8.923-10.568 19.952-10.568 31.877 0 2.484.182 4.922.514 7.317a23.713 23.713 0 0 0-3.224-.224c-.313 0-.621.01-.929.023a23.993 23.993 0 0 0-4.022.504 23.652 23.652 0 0 0-15.957 12.108l-.004-.01c-9.304-7.04-15.323-18.168-15.323-30.672a38.219 38.219 0 0 1 2.674-14.03 38.753 38.753 0 0 1 14.04-17.641c.559-.383 1.128-.757 1.707-1.116.588-.36 1.185-.71 1.791-1.041a38.653 38.653 0 0 1 18.514-4.698Zm83.087-13.391c18.617 0 33.939 14.27 35.52 32.395a42.593 42.593 0 0 0-17.053 4.763h-.004c-4.918-8.937-12.318-16.329-21.267-21.273a39.196 39.196 0 0 0 .686-15.815c.7-.042 1.404-.07 2.118-.07Zm-41.32-29.164c16.28 0 30.039 10.912 34.294 25.774.182.64.35 1.294.499 1.952a35.27 35.27 0 0 1 .868 7.76c0 2.643-.304 5.22-.859 7.704a53.821 53.821 0 0 0-17.613-4.631 53.42 53.42 0 0 0-2.753-.173c-.671-.024-1.339-.052-2.015-.052-.238 0-.471.02-.705.02a53.783 53.783 0 0 0-28.26 8.404c-.602.383-1.2.775-1.787 1.181-.588.41-1.171.826-1.745 1.256a54.208 54.208 0 0 0-8.305 7.751 35.807 35.807 0 0 1-4.204-7.06 33.662 33.662 0 0 1-.826-1.989 34.77 34.77 0 0 1-1.4-4.702c-.153-.7-.293-1.405-.41-2.12l.005.005c-.108-.686-.2-1.378-.27-2.078a35.16 35.16 0 0 1 2.412-16.763c.275-.676.564-1.349.876-2.003.304-.63.626-1.246.966-1.858 6.084-10.95 17.8-18.378 31.233-18.378Zm-46.559 16.426c3.784 0 7.302 1.14 10.242 3.082a39.137 39.137 0 0 0-3.402 15.973c0 1.051.056 2.083.136 3.11a42.144 42.144 0 0 0-1.635-.052l-.554-.004c-7.59 0-14.72 1.99-20.907 5.454a18.253 18.253 0 0 1-2.43-9.1c0-10.18 8.323-18.463 18.55-18.463ZM83.496 359.49 71.79 390.633h6.63l2.384-6.681h12.094l2.342 6.681h7.064l-11.618-31.148h-7.194l.004.005Zm-.826 19.214 4.246-12.02 4.162 12.02H82.67Zm56.18-19.214h-7.54l-11.314 13.708V359.49h-6.588v31.143h6.588v-14.227l11.095 14.227h8.11l-12.705-16.22 12.355-14.923Zm2.646 7.98h6.023v23.163h-6.023V367.47Zm2.949-9.022c-2.342 0-3.99 1.518-3.99 3.642 0 2.125 1.648 3.558 3.99 3.558 2.342 0 4.03-1.517 4.03-3.558 0-2.002-1.586-3.582-3.899-3.64l-.131-.002Zm15.56 2.167h-5.982v6.854h-4.68v5.165h4.68v10.496c0 5.206 2.991 7.938 7.76 7.938 1.777 0 3.163-.304 4.637-1.042v-5.248c-.868.476-1.908.738-3.032.738-2.17 0-3.383-1.083-3.383-3.773v-9.11h6.63v-5.164h-6.63v-6.854Zm18.9 6.42c-6.676 0-11.486 5.034-11.486 11.93 0 7.247 4.638 12.06 11.575 12.06 5.637 0 9.668-2.992 10.97-8.24h-5.982c-.695 2.297-2.473 3.6-5.114 3.6-3.079 0-4.899-2.083-5.286-5.856h16.428c1.083-7.55-3.77-13.49-11.095-13.49l-.01-.004Zm-5.243 9.675c.517-3.427 2.295-5.248 5.113-5.248 2.818 0 4.68 2.04 4.857 5.248h-9.97Zm40.661 5.42-4.12-14.66h-5.934l-4.25 14.66-3.943-14.66h-5.856l6.593 23.163h6.023l4.335-15.049 4.376 15.05h5.986l6.63-23.165h-5.94l-3.9 14.662Zm21.635-15.095c-6.718 0-11.748 5.248-11.748 12.019 0 6.77 5.03 12.018 11.748 12.018 6.719 0 11.749-5.29 11.749-12.018 0-6.661-4.93-11.913-11.548-12.017l-.2-.002Zm0 18.7c-2.99 0-5.547-2.386-5.547-6.681 0-4.296 2.557-6.635 5.547-6.635 2.991 0 5.548 2.344 5.548 6.635 0 4.29-2.557 6.681-5.548 6.681Zm20.287-13.797v-4.469h-5.548v23.164h6.024V379.4c0-5.117 3.424-6.331 8.538-5.944v-6.247c-3.662 0-7.199 1.717-8.923 4.576l-.091.154Zm43.35-4.903c5.808 0 9.797 3.082 10.231 8.069h-5.767c-.214-2.256-1.908-3.642-4.465-3.642-2.211 0-3.686.821-3.686 2.297 0 1.391.952 1.952 3.033 2.344l4.465.826c4.512.869 6.807 2.951 6.807 6.29 0 4.86-3.686 7.853-10.274 7.853-6.588 0-10.273-3.165-10.75-8.33h5.767c.042 2.386 2.081 3.904 5.072 3.904 2.342 0 4.12-.738 4.12-2.386 0-1.476-.952-2.083-3.163-2.517l-4.162-.78c-4.162-.737-6.677-3.04-6.677-6.64 0-4.295 3.64-7.288 9.448-7.288Zm-26.054-7.545v17.785l8.454-9.806h6.933l-9.578 11.108 10.707 12.056h-7.675l-8.841-10.758v10.758h-6.028V359.49h6.028Zm62.511 5.248c4.423 0 7.89 3.082 8.627 7.55h6.98c-1.082-7.984-7.498-13.447-15.69-13.447-8.758 0-15.608 7.069-15.608 16.183s6.85 16.268 15.607 16.268c8.193 0 14.609-5.421 15.691-13.49h-6.98c-.779 4.469-4.204 7.593-8.627 7.593-5.333 0-8.93-4.25-8.93-10.366 0-6.117 3.597-10.282 8.93-10.282v-.01Zm29.044 2.297c-6.718 0-11.748 5.248-11.748 12.019 0 6.77 5.03 12.018 11.748 12.018 6.719 0 11.749-5.29 11.749-12.018 0-6.661-4.93-11.913-11.548-12.017l-.2-.002Zm0 18.7c-2.99 0-5.547-2.386-5.547-6.681 0-4.296 2.557-6.635 5.547-6.635 2.991 0 5.548 2.344 5.548 6.635 0 4.29-2.557 6.681-5.548 6.681Zm41.614-18.7c-3.467 0-5.809 1.56-7.628 4.123-1.172-2.647-3.598-4.123-6.761-4.123-3.163 0-5.244 1.387-6.938 3.73v-3.296h-5.548v23.164h6.024v-12.929c0-3.469 1.908-5.337 4.334-5.337 2.646 0 4.032 1.952 4.032 5.207v13.06h5.981v-12.93c0-3.469 1.95-5.337 4.334-5.337 2.646 0 4.032 1.952 4.032 5.207v13.06h5.981v-14.965c0-5.49-3.093-8.564-7.69-8.633h-.153Zm24.971 0c-2.949 0-5.506 1.345-7.283 3.82v-3.386h-5.548v31.536h6.024V387.64c1.735 2.256 4.073 3.428 6.807 3.428 6.243 0 10.274-5.165 10.274-12.019s-4.031-12.019-10.274-12.019v.005Zm-1.344 18.654c-2.948 0-5.417-2.256-5.417-6.64s2.473-6.682 5.417-6.682 5.417 2.344 5.417 6.682c0 4.338-2.473 6.64-5.417 6.64Zm23.67-18.654c-5.595 0-9.449 3.47-9.799 8.806h5.417c.215-2.6 1.778-4.123 4.377-4.123 2.599 0 3.989 1.518 3.989 4.123v1.387c-1.432-.173-2.557-.261-3.859-.261-6.76 0-10.404 2.428-10.404 6.943s3.205 7.158 8.02 7.158c3.164 0 5.464-1.13 6.98-3.297v2.862h4.9v-14.577c0-5.623-3.482-8.951-9.437-9.02h-.185Zm3.989 15.488c0 2.69-1.867 4.38-4.941 4.38-2.254 0-3.64-1.214-3.64-3.166 0-2.083 1.69-3.166 5.114-3.166 1.04 0 2.039.089 3.467.304v1.648Zm22.628-15.488c-3.032 0-5.416 1.434-7.11 3.73v-3.296h-5.548v23.164h6.024v-12.625c0-3.73 2.039-5.64 4.423-5.64 2.73 0 4.073 1.91 4.073 5.336v12.93h5.982v-14.965c0-5.531-3.139-8.565-7.692-8.633h-.152Zm20.852 16.314-5.81-15.88h-6.503l9.103 22.908-3.294 8.633h6.546l11.272-31.54h-6.028l-5.286 15.88Z"/></g></svg>